scale=0.028659, tx=6.8434, ty=22.5200
<svg xmlns="http://www.w3.org/2000/svg" viewBox="0 0 32 32">
  <g transform="translate(6.8434 22.5200) scale(0.028659 -0.028659)">
    <path d="M515 -261Q511 -261 509.0 -260.0Q507 -259 505 -258Q516 -250 516 -236Q516 -224 508.5 -211.5Q501 -199 493 -192Q484 -184 473.5 -174.0Q463 -164 455 -145Q449 -133 449 -119Q449 -105 455.0 -92.5Q461 -80 472 -73Q465 -66 452.5 -61.0Q440 -56 426 -56H417Q403 -56 391 -59Q374 -65 356.5 -69.0Q339 -73 322 -75Q321 -93 324.5 -121.5Q328 -150 340.0 -173.0Q352 -196 376 -198V-207Q354 -208 339.0 -190.5Q324 -173 316 -150Q313 -163 305.5 -175.0Q298 -187 285 -193Q284 -206 271.0 -217.5Q258 -229 237 -229Q224 -229 208.0 -223.0Q192 -217 180.0 -207.0Q168 -197 165 -186V-183Q165 -174 169 -172Q171 -179 176.5 -181.5Q182 -184 188 -184Q201 -184 210 -177Q217 -173 226.0 -168.0Q235 -163 250 -163Q261 -163 271.0 -169.0Q281 -175 284 -186Q298 -179 304.0 -158.5Q310 -138 309 -125Q306 -111 305.0 -98.5Q304 -86 304 -77Q250 -79 205.0 -60.0Q160 -41 133.0 -0.5Q106 40 106 100Q106 130 113.5 164.5Q121 199 138 238Q161 291 200.5 342.0Q240 393 283 436Q263 444 242.5 453.5Q222 463 203 473Q185 479 167 481Q140 481 126 470Q134 464 138.0 454.5Q142 445 142 434Q142 417 135 406Q126 390 115.5 382.5Q105 375 97 369Q89 364 81.5 352.5Q74 341 74 330Q74 321 81 314Q79 312 74 312Q69 312 62 316Q49 324 43.0 343.5Q37 363 37 384Q37 414 47 436Q56 456 72.5 466.5Q89 477 104 477Q108 477 111.0 476.5Q114 476 117 475Q137 493 164 493H167Q141 511 127 525Q104 550 93.5 574.5Q83 599 83 621Q83 662 115.0 689.0Q147 716 199 716Q232 716 271.5 703.5Q311 691 354 662Q357 662 364 655Q369 651 378 651Q389 651 399.5 658.0Q410 665 417 672Q432 686 454.0 697.5Q476 709 494 709Q520 709 534.0 694.5Q548 680 550 662Q544 671 528 671Q512 671 498.0 660.5Q484 650 473 640Q460 630 446.5 621.5Q433 613 412 613Q408 613 404.5 613.0Q401 613 396 614Q386 616 375.5 623.5Q365 631 358 641Q353 646 347.0 652.0Q341 658 339 659Q332 664 324.5 668.0Q317 672 310 675Q313 672 314 670Q333 649 333 623Q333 606 324.0 594.5Q315 583 302 583Q293 583 283 590Q276 595 276.0 600.0Q276 605 283 603Q291 601 299.0 610.0Q307 619 310 631Q311 635 311.5 639.5Q312 644 312 648Q312 656 310.0 664.0Q308 672 303 679Q251 703 209 703Q166 703 140.5 681.0Q115 659 115 624Q115 603 125.0 580.0Q135 557 157 533Q178 511 213.0 489.0Q248 467 295 447Q374 521 473.0 566.5Q572 612 676 612Q754 612 792.5 585.0Q831 558 831 521Q831 489 801.5 456.0Q772 423 712 401Q678 388 639.5 382.5Q601 377 561 377Q486 377 412 394Q403 393 396.0 389.5Q389 386 385 381Q374 372 374 358Q374 352 378 348Q383 344 382.0 342.0Q381 340 377 340Q370 340 360.5 346.5Q351 353 351 366Q351 379 362.0 388.0Q373 397 388 400Q375 403 362.0 407.0Q349 411 338 415Q309 384 282.0 346.5Q255 309 233 268Q233 267 232.5 266.5Q232 266 232 264Q228 253 225.5 240.5Q223 228 223 216Q223 195 230.5 177.0Q238 159 250 153L254 151Q260 160 270.5 164.5Q281 169 292 169Q305 169 313 165Q327 160 335.0 153.0Q343 146 350 138Q360 161 371.5 182.5Q383 204 397 222Q429 263 463.5 281.5Q498 300 528 300Q569 300 595.5 272.0Q622 244 622 200Q622 177 613.0 149.5Q604 122 584 93Q556 53 516.5 17.5Q477 -18 431 -41L432 -42Q463 -45 483 -68Q485 -67 488.0 -67.0Q491 -67 493 -67Q512 -67 531.0 -81.5Q550 -96 559 -122Q565 -138 565 -163Q565 -191 555.5 -219.0Q546 -247 528 -257Q520 -261 515 -261ZM531 398Q626 398 701 424Q751 441 778.0 469.5Q805 498 805 525Q805 551 776.5 571.5Q748 592 687 592Q648 592 600.5 576.5Q553 561 505.0 536.0Q457 511 416.0 482.5Q375 454 349 428Q388 413 435.0 405.5Q482 398 531 398ZM324 -54Q371 -46 416.5 -20.5Q462 5 500.5 41.0Q539 77 564 116Q580 140 587.0 162.5Q594 185 594 204Q594 239 574.5 261.0Q555 283 523 283Q498 283 468.0 266.0Q438 249 409 210Q380 170 362 127Q375 117 390 117Q403 117 409 126Q412 123 412 118Q412 99 390.5 88.5Q369 78 344 74Q335 43 330.5 10.5Q326 -22 324 -54ZM306 -56Q307 -28 312.0 5.5Q317 39 327 73Q308 73 296 77Q271 85 258.0 104.0Q245 123 249 139Q249 141 251 145H250Q240 145 228.0 162.0Q216 179 213 197Q212 201 212 210Q212 215 212.0 220.0Q212 225 213 229Q209 221 205.5 212.5Q202 204 199 196Q184 160 177.5 128.5Q171 97 171 71Q171 5 209.0 -27.5Q247 -60 306 -56Z" fill="#1a1a1a"/>
  </g>
</svg>
